<mxfile host="app.diagrams.net" agent="Mozilla/5.0 (Windows NT 10.0; Win64; x64) AppleWebKit/537.36 (KHTML, like Gecko) Chrome/128.0.0.0 Safari/537.36 Edg/128.0.0.0" version="24.7.16">
  <diagram name="第 1 页" id="Y7WcQFRap8hTRmkbWVf2">
    <mxGraphModel dx="1793" dy="1558" grid="1" gridSize="10" guides="1" tooltips="1" connect="1" arrows="1" fold="1" page="1" pageScale="1" pageWidth="827" pageHeight="1169" math="0" shadow="0">
      <root>
        <mxCell id="0" />
        <mxCell id="1" parent="0" />
        <mxCell id="KeZkn1Jppf8AMs9LS9iD-27" value="" style="shape=table;startSize=0;container=1;collapsible=0;childLayout=tableLayout;fontSize=16;rounded=1;labelBackgroundColor=none;" vertex="1" parent="1">
          <mxGeometry x="-460" y="-270" width="1400" height="577" as="geometry" />
        </mxCell>
        <mxCell id="KeZkn1Jppf8AMs9LS9iD-28" value="" style="shape=tableRow;horizontal=0;startSize=0;swimlaneHead=0;swimlaneBody=0;top=0;left=0;bottom=0;right=0;collapsible=0;dropTarget=0;fillColor=none;points=[[0,0.5],[1,0.5]];portConstraint=eastwest;fontSize=16;fontStyle=1;rounded=1;labelBackgroundColor=none;" vertex="1" parent="KeZkn1Jppf8AMs9LS9iD-27">
          <mxGeometry width="1400" height="74" as="geometry" />
        </mxCell>
        <mxCell id="KeZkn1Jppf8AMs9LS9iD-71" value="名称" style="shape=partialRectangle;html=1;whiteSpace=wrap;connectable=0;overflow=hidden;fillColor=none;top=0;left=0;bottom=0;right=0;pointerEvents=1;fontSize=16;fontStyle=1;rounded=1;labelBackgroundColor=none;" vertex="1" parent="KeZkn1Jppf8AMs9LS9iD-28">
          <mxGeometry width="171" height="74" as="geometry">
            <mxRectangle width="171" height="74" as="alternateBounds" />
          </mxGeometry>
        </mxCell>
        <mxCell id="KeZkn1Jppf8AMs9LS9iD-29" value="形状" style="shape=partialRectangle;html=1;whiteSpace=wrap;connectable=0;overflow=hidden;fillColor=none;top=0;left=0;bottom=0;right=0;pointerEvents=1;fontSize=16;fontStyle=1;rounded=1;labelBackgroundColor=none;" vertex="1" parent="KeZkn1Jppf8AMs9LS9iD-28">
          <mxGeometry x="171" width="299" height="74" as="geometry">
            <mxRectangle width="299" height="74" as="alternateBounds" />
          </mxGeometry>
        </mxCell>
        <mxCell id="KeZkn1Jppf8AMs9LS9iD-30" value="周长" style="shape=partialRectangle;html=1;whiteSpace=wrap;connectable=0;overflow=hidden;fillColor=none;top=0;left=0;bottom=0;right=0;pointerEvents=1;fontSize=16;fontStyle=1;rounded=1;labelBackgroundColor=none;" vertex="1" parent="KeZkn1Jppf8AMs9LS9iD-28">
          <mxGeometry x="470" width="230" height="74" as="geometry">
            <mxRectangle width="230" height="74" as="alternateBounds" />
          </mxGeometry>
        </mxCell>
        <mxCell id="KeZkn1Jppf8AMs9LS9iD-31" value="面积" style="shape=partialRectangle;html=1;whiteSpace=wrap;connectable=0;overflow=hidden;fillColor=none;top=0;left=0;bottom=0;right=0;pointerEvents=1;fontSize=16;fontStyle=1;rounded=1;labelBackgroundColor=none;" vertex="1" parent="KeZkn1Jppf8AMs9LS9iD-28">
          <mxGeometry x="700" width="350" height="74" as="geometry">
            <mxRectangle width="350" height="74" as="alternateBounds" />
          </mxGeometry>
        </mxCell>
        <mxCell id="KeZkn1Jppf8AMs9LS9iD-138" value="推导过程" style="shape=partialRectangle;html=1;whiteSpace=wrap;connectable=0;overflow=hidden;fillColor=none;top=0;left=0;bottom=0;right=0;pointerEvents=1;fontSize=16;fontStyle=1;rounded=1;labelBackgroundColor=none;" vertex="1" parent="KeZkn1Jppf8AMs9LS9iD-28">
          <mxGeometry x="1050" width="350" height="74" as="geometry">
            <mxRectangle width="350" height="74" as="alternateBounds" />
          </mxGeometry>
        </mxCell>
        <mxCell id="KeZkn1Jppf8AMs9LS9iD-32" value="" style="shape=tableRow;horizontal=0;startSize=0;swimlaneHead=0;swimlaneBody=0;top=0;left=0;bottom=0;right=0;collapsible=0;dropTarget=0;fillColor=none;points=[[0,0.5],[1,0.5]];portConstraint=eastwest;fontSize=16;rounded=1;labelBackgroundColor=none;" vertex="1" parent="KeZkn1Jppf8AMs9LS9iD-27">
          <mxGeometry y="74" width="1400" height="101" as="geometry" />
        </mxCell>
        <mxCell id="KeZkn1Jppf8AMs9LS9iD-72" value="长方形" style="shape=partialRectangle;html=1;whiteSpace=wrap;connectable=0;overflow=hidden;fillColor=none;top=0;left=0;bottom=0;right=0;pointerEvents=1;fontSize=16;rounded=1;labelBackgroundColor=none;fontStyle=1" vertex="1" parent="KeZkn1Jppf8AMs9LS9iD-32">
          <mxGeometry width="171" height="101" as="geometry">
            <mxRectangle width="171" height="101" as="alternateBounds" />
          </mxGeometry>
        </mxCell>
        <mxCell id="KeZkn1Jppf8AMs9LS9iD-33" value="" style="shape=partialRectangle;html=1;whiteSpace=wrap;connectable=0;overflow=hidden;fillColor=none;top=0;left=0;bottom=0;right=0;pointerEvents=1;fontSize=16;rounded=1;labelBackgroundColor=none;" vertex="1" parent="KeZkn1Jppf8AMs9LS9iD-32">
          <mxGeometry x="171" width="299" height="101" as="geometry">
            <mxRectangle width="299" height="101" as="alternateBounds" />
          </mxGeometry>
        </mxCell>
        <mxCell id="KeZkn1Jppf8AMs9LS9iD-34" value="" style="shape=partialRectangle;html=1;whiteSpace=wrap;connectable=0;overflow=hidden;fillColor=none;top=0;left=0;bottom=0;right=0;pointerEvents=1;fontSize=16;rounded=1;labelBackgroundColor=none;" vertex="1" parent="KeZkn1Jppf8AMs9LS9iD-32">
          <mxGeometry x="470" width="230" height="101" as="geometry">
            <mxRectangle width="230" height="101" as="alternateBounds" />
          </mxGeometry>
        </mxCell>
        <mxCell id="KeZkn1Jppf8AMs9LS9iD-35" value="" style="shape=partialRectangle;html=1;whiteSpace=wrap;connectable=0;overflow=hidden;fillColor=none;top=0;left=0;bottom=0;right=0;pointerEvents=1;fontSize=16;rounded=1;labelBackgroundColor=none;" vertex="1" parent="KeZkn1Jppf8AMs9LS9iD-32">
          <mxGeometry x="700" width="350" height="101" as="geometry">
            <mxRectangle width="350" height="101" as="alternateBounds" />
          </mxGeometry>
        </mxCell>
        <mxCell id="KeZkn1Jppf8AMs9LS9iD-139" value="？" style="shape=partialRectangle;html=1;whiteSpace=wrap;connectable=0;overflow=hidden;fillColor=none;top=0;left=0;bottom=0;right=0;pointerEvents=1;fontSize=16;rounded=1;labelBackgroundColor=none;" vertex="1" parent="KeZkn1Jppf8AMs9LS9iD-32">
          <mxGeometry x="1050" width="350" height="101" as="geometry">
            <mxRectangle width="350" height="101" as="alternateBounds" />
          </mxGeometry>
        </mxCell>
        <mxCell id="KeZkn1Jppf8AMs9LS9iD-36" value="" style="shape=tableRow;horizontal=0;startSize=0;swimlaneHead=0;swimlaneBody=0;top=0;left=0;bottom=0;right=0;collapsible=0;dropTarget=0;fillColor=none;points=[[0,0.5],[1,0.5]];portConstraint=eastwest;fontSize=16;rounded=1;labelBackgroundColor=none;" vertex="1" parent="KeZkn1Jppf8AMs9LS9iD-27">
          <mxGeometry y="175" width="1400" height="100" as="geometry" />
        </mxCell>
        <mxCell id="KeZkn1Jppf8AMs9LS9iD-73" value="正方形" style="shape=partialRectangle;html=1;whiteSpace=wrap;connectable=0;overflow=hidden;fillColor=none;top=0;left=0;bottom=0;right=0;pointerEvents=1;fontSize=16;rounded=1;labelBackgroundColor=none;fontStyle=1" vertex="1" parent="KeZkn1Jppf8AMs9LS9iD-36">
          <mxGeometry width="171" height="100" as="geometry">
            <mxRectangle width="171" height="100" as="alternateBounds" />
          </mxGeometry>
        </mxCell>
        <mxCell id="KeZkn1Jppf8AMs9LS9iD-37" value="" style="shape=partialRectangle;html=1;whiteSpace=wrap;connectable=0;overflow=hidden;fillColor=none;top=0;left=0;bottom=0;right=0;pointerEvents=1;fontSize=16;rounded=1;labelBackgroundColor=none;" vertex="1" parent="KeZkn1Jppf8AMs9LS9iD-36">
          <mxGeometry x="171" width="299" height="100" as="geometry">
            <mxRectangle width="299" height="100" as="alternateBounds" />
          </mxGeometry>
        </mxCell>
        <mxCell id="KeZkn1Jppf8AMs9LS9iD-38" value="" style="shape=partialRectangle;html=1;whiteSpace=wrap;connectable=0;overflow=hidden;fillColor=none;top=0;left=0;bottom=0;right=0;pointerEvents=1;fontSize=16;rounded=1;labelBackgroundColor=none;" vertex="1" parent="KeZkn1Jppf8AMs9LS9iD-36">
          <mxGeometry x="470" width="230" height="100" as="geometry">
            <mxRectangle width="230" height="100" as="alternateBounds" />
          </mxGeometry>
        </mxCell>
        <mxCell id="KeZkn1Jppf8AMs9LS9iD-39" value="" style="shape=partialRectangle;html=1;whiteSpace=wrap;connectable=0;overflow=hidden;fillColor=none;top=0;left=0;bottom=0;right=0;pointerEvents=1;fontSize=16;rounded=1;labelBackgroundColor=none;" vertex="1" parent="KeZkn1Jppf8AMs9LS9iD-36">
          <mxGeometry x="700" width="350" height="100" as="geometry">
            <mxRectangle width="350" height="100" as="alternateBounds" />
          </mxGeometry>
        </mxCell>
        <mxCell id="KeZkn1Jppf8AMs9LS9iD-140" value="？" style="shape=partialRectangle;html=1;whiteSpace=wrap;connectable=0;overflow=hidden;fillColor=none;top=0;left=0;bottom=0;right=0;pointerEvents=1;fontSize=16;rounded=1;labelBackgroundColor=none;" vertex="1" parent="KeZkn1Jppf8AMs9LS9iD-36">
          <mxGeometry x="1050" width="350" height="100" as="geometry">
            <mxRectangle width="350" height="100" as="alternateBounds" />
          </mxGeometry>
        </mxCell>
        <mxCell id="KeZkn1Jppf8AMs9LS9iD-74" style="shape=tableRow;horizontal=0;startSize=0;swimlaneHead=0;swimlaneBody=0;top=0;left=0;bottom=0;right=0;collapsible=0;dropTarget=0;fillColor=none;points=[[0,0.5],[1,0.5]];portConstraint=eastwest;fontSize=16;rounded=1;labelBackgroundColor=none;" vertex="1" parent="KeZkn1Jppf8AMs9LS9iD-27">
          <mxGeometry y="275" width="1400" height="100" as="geometry" />
        </mxCell>
        <mxCell id="KeZkn1Jppf8AMs9LS9iD-75" value="平行四边形" style="shape=partialRectangle;html=1;whiteSpace=wrap;connectable=0;overflow=hidden;fillColor=none;top=0;left=0;bottom=0;right=0;pointerEvents=1;fontSize=16;rounded=1;labelBackgroundColor=none;fontStyle=1" vertex="1" parent="KeZkn1Jppf8AMs9LS9iD-74">
          <mxGeometry width="171" height="100" as="geometry">
            <mxRectangle width="171" height="100" as="alternateBounds" />
          </mxGeometry>
        </mxCell>
        <mxCell id="KeZkn1Jppf8AMs9LS9iD-76" style="shape=partialRectangle;html=1;whiteSpace=wrap;connectable=0;overflow=hidden;fillColor=none;top=0;left=0;bottom=0;right=0;pointerEvents=1;fontSize=16;rounded=1;labelBackgroundColor=none;" vertex="1" parent="KeZkn1Jppf8AMs9LS9iD-74">
          <mxGeometry x="171" width="299" height="100" as="geometry">
            <mxRectangle width="299" height="100" as="alternateBounds" />
          </mxGeometry>
        </mxCell>
        <mxCell id="KeZkn1Jppf8AMs9LS9iD-77" value="同长方形" style="shape=partialRectangle;html=1;whiteSpace=wrap;connectable=0;overflow=hidden;fillColor=none;top=0;left=0;bottom=0;right=0;pointerEvents=1;fontSize=16;rounded=1;labelBackgroundColor=none;" vertex="1" parent="KeZkn1Jppf8AMs9LS9iD-74">
          <mxGeometry x="470" width="230" height="100" as="geometry">
            <mxRectangle width="230" height="100" as="alternateBounds" />
          </mxGeometry>
        </mxCell>
        <mxCell id="KeZkn1Jppf8AMs9LS9iD-78" style="shape=partialRectangle;html=1;whiteSpace=wrap;connectable=0;overflow=hidden;fillColor=none;top=0;left=0;bottom=0;right=0;pointerEvents=1;fontSize=16;rounded=1;labelBackgroundColor=none;" vertex="1" parent="KeZkn1Jppf8AMs9LS9iD-74">
          <mxGeometry x="700" width="350" height="100" as="geometry">
            <mxRectangle width="350" height="100" as="alternateBounds" />
          </mxGeometry>
        </mxCell>
        <mxCell id="KeZkn1Jppf8AMs9LS9iD-141" value="？" style="shape=partialRectangle;html=1;whiteSpace=wrap;connectable=0;overflow=hidden;fillColor=none;top=0;left=0;bottom=0;right=0;pointerEvents=1;fontSize=16;rounded=1;labelBackgroundColor=none;" vertex="1" parent="KeZkn1Jppf8AMs9LS9iD-74">
          <mxGeometry x="1050" width="350" height="100" as="geometry">
            <mxRectangle width="350" height="100" as="alternateBounds" />
          </mxGeometry>
        </mxCell>
        <mxCell id="KeZkn1Jppf8AMs9LS9iD-79" style="shape=tableRow;horizontal=0;startSize=0;swimlaneHead=0;swimlaneBody=0;top=0;left=0;bottom=0;right=0;collapsible=0;dropTarget=0;fillColor=none;points=[[0,0.5],[1,0.5]];portConstraint=eastwest;fontSize=16;rounded=1;labelBackgroundColor=none;" vertex="1" parent="KeZkn1Jppf8AMs9LS9iD-27">
          <mxGeometry y="375" width="1400" height="101" as="geometry" />
        </mxCell>
        <mxCell id="KeZkn1Jppf8AMs9LS9iD-80" value="三角形" style="shape=partialRectangle;html=1;whiteSpace=wrap;connectable=0;overflow=hidden;fillColor=none;top=0;left=0;bottom=0;right=0;pointerEvents=1;fontSize=16;rounded=1;labelBackgroundColor=none;fontStyle=1" vertex="1" parent="KeZkn1Jppf8AMs9LS9iD-79">
          <mxGeometry width="171" height="101" as="geometry">
            <mxRectangle width="171" height="101" as="alternateBounds" />
          </mxGeometry>
        </mxCell>
        <mxCell id="KeZkn1Jppf8AMs9LS9iD-81" style="shape=partialRectangle;html=1;whiteSpace=wrap;connectable=0;overflow=hidden;fillColor=none;top=0;left=0;bottom=0;right=0;pointerEvents=1;fontSize=16;rounded=1;labelBackgroundColor=none;" vertex="1" parent="KeZkn1Jppf8AMs9LS9iD-79">
          <mxGeometry x="171" width="299" height="101" as="geometry">
            <mxRectangle width="299" height="101" as="alternateBounds" />
          </mxGeometry>
        </mxCell>
        <mxCell id="KeZkn1Jppf8AMs9LS9iD-82" style="shape=partialRectangle;html=1;whiteSpace=wrap;connectable=0;overflow=hidden;fillColor=none;top=0;left=0;bottom=0;right=0;pointerEvents=1;fontSize=16;rounded=1;labelBackgroundColor=none;" vertex="1" parent="KeZkn1Jppf8AMs9LS9iD-79">
          <mxGeometry x="470" width="230" height="101" as="geometry">
            <mxRectangle width="230" height="101" as="alternateBounds" />
          </mxGeometry>
        </mxCell>
        <mxCell id="KeZkn1Jppf8AMs9LS9iD-83" style="shape=partialRectangle;html=1;whiteSpace=wrap;connectable=0;overflow=hidden;fillColor=none;top=0;left=0;bottom=0;right=0;pointerEvents=1;fontSize=16;rounded=1;labelBackgroundColor=none;" vertex="1" parent="KeZkn1Jppf8AMs9LS9iD-79">
          <mxGeometry x="700" width="350" height="101" as="geometry">
            <mxRectangle width="350" height="101" as="alternateBounds" />
          </mxGeometry>
        </mxCell>
        <mxCell id="KeZkn1Jppf8AMs9LS9iD-142" value="？" style="shape=partialRectangle;html=1;whiteSpace=wrap;connectable=0;overflow=hidden;fillColor=none;top=0;left=0;bottom=0;right=0;pointerEvents=1;fontSize=16;rounded=1;labelBackgroundColor=none;" vertex="1" parent="KeZkn1Jppf8AMs9LS9iD-79">
          <mxGeometry x="1050" width="350" height="101" as="geometry">
            <mxRectangle width="350" height="101" as="alternateBounds" />
          </mxGeometry>
        </mxCell>
        <mxCell id="KeZkn1Jppf8AMs9LS9iD-84" style="shape=tableRow;horizontal=0;startSize=0;swimlaneHead=0;swimlaneBody=0;top=0;left=0;bottom=0;right=0;collapsible=0;dropTarget=0;fillColor=none;points=[[0,0.5],[1,0.5]];portConstraint=eastwest;fontSize=16;rounded=1;labelBackgroundColor=none;" vertex="1" parent="KeZkn1Jppf8AMs9LS9iD-27">
          <mxGeometry y="476" width="1400" height="101" as="geometry" />
        </mxCell>
        <mxCell id="KeZkn1Jppf8AMs9LS9iD-85" value="梯形" style="shape=partialRectangle;html=1;whiteSpace=wrap;connectable=0;overflow=hidden;fillColor=none;top=0;left=0;bottom=0;right=0;pointerEvents=1;fontSize=16;rounded=1;labelBackgroundColor=none;fontStyle=1" vertex="1" parent="KeZkn1Jppf8AMs9LS9iD-84">
          <mxGeometry width="171" height="101" as="geometry">
            <mxRectangle width="171" height="101" as="alternateBounds" />
          </mxGeometry>
        </mxCell>
        <mxCell id="KeZkn1Jppf8AMs9LS9iD-86" style="shape=partialRectangle;html=1;whiteSpace=wrap;connectable=0;overflow=hidden;fillColor=none;top=0;left=0;bottom=0;right=0;pointerEvents=1;fontSize=16;rounded=1;labelBackgroundColor=none;" vertex="1" parent="KeZkn1Jppf8AMs9LS9iD-84">
          <mxGeometry x="171" width="299" height="101" as="geometry">
            <mxRectangle width="299" height="101" as="alternateBounds" />
          </mxGeometry>
        </mxCell>
        <mxCell id="KeZkn1Jppf8AMs9LS9iD-87" style="shape=partialRectangle;html=1;whiteSpace=wrap;connectable=0;overflow=hidden;fillColor=none;top=0;left=0;bottom=0;right=0;pointerEvents=1;fontSize=16;rounded=1;labelBackgroundColor=none;" vertex="1" parent="KeZkn1Jppf8AMs9LS9iD-84">
          <mxGeometry x="470" width="230" height="101" as="geometry">
            <mxRectangle width="230" height="101" as="alternateBounds" />
          </mxGeometry>
        </mxCell>
        <mxCell id="KeZkn1Jppf8AMs9LS9iD-88" style="shape=partialRectangle;html=1;whiteSpace=wrap;connectable=0;overflow=hidden;fillColor=none;top=0;left=0;bottom=0;right=0;pointerEvents=1;fontSize=16;rounded=1;labelBackgroundColor=none;" vertex="1" parent="KeZkn1Jppf8AMs9LS9iD-84">
          <mxGeometry x="700" width="350" height="101" as="geometry">
            <mxRectangle width="350" height="101" as="alternateBounds" />
          </mxGeometry>
        </mxCell>
        <mxCell id="KeZkn1Jppf8AMs9LS9iD-143" value="？" style="shape=partialRectangle;html=1;whiteSpace=wrap;connectable=0;overflow=hidden;fillColor=none;top=0;left=0;bottom=0;right=0;pointerEvents=1;fontSize=16;rounded=1;labelBackgroundColor=none;" vertex="1" parent="KeZkn1Jppf8AMs9LS9iD-84">
          <mxGeometry x="1050" width="350" height="101" as="geometry">
            <mxRectangle width="350" height="101" as="alternateBounds" />
          </mxGeometry>
        </mxCell>
        <mxCell id="KeZkn1Jppf8AMs9LS9iD-95" value="" style="rounded=0;whiteSpace=wrap;html=1;" vertex="1" parent="1">
          <mxGeometry x="-240" y="-160" width="210" height="54" as="geometry" />
        </mxCell>
        <mxCell id="KeZkn1Jppf8AMs9LS9iD-96" value="" style="whiteSpace=wrap;html=1;aspect=fixed;" vertex="1" parent="1">
          <mxGeometry x="-180" y="-80" width="80" height="80" as="geometry" />
        </mxCell>
        <mxCell id="KeZkn1Jppf8AMs9LS9iD-97" value="" style="shape=parallelogram;perimeter=parallelogramPerimeter;whiteSpace=wrap;html=1;fixedSize=1;" vertex="1" parent="1">
          <mxGeometry x="-195" y="20" width="120" height="60" as="geometry" />
        </mxCell>
        <mxCell id="KeZkn1Jppf8AMs9LS9iD-99" value="" style="triangle;whiteSpace=wrap;html=1;rotation=30;" vertex="1" parent="1">
          <mxGeometry x="-175" y="126.5" width="100" height="107" as="geometry" />
        </mxCell>
        <mxCell id="KeZkn1Jppf8AMs9LS9iD-100" value="" style="shape=trapezoid;perimeter=trapezoidPerimeter;whiteSpace=wrap;html=1;fixedSize=1;" vertex="1" parent="1">
          <mxGeometry x="-190" y="230" width="120" height="60" as="geometry" />
        </mxCell>
        <mxCell id="KeZkn1Jppf8AMs9LS9iD-101" value="&lt;font style=&quot;font-size: 24px;&quot;&gt;a&lt;/font&gt;" style="text;html=1;align=center;verticalAlign=middle;whiteSpace=wrap;rounded=0;fontColor=#FF0000;" vertex="1" parent="1">
          <mxGeometry x="-165" y="-136" width="60" height="30" as="geometry" />
        </mxCell>
        <mxCell id="KeZkn1Jppf8AMs9LS9iD-102" value="b" style="text;html=1;align=center;verticalAlign=middle;whiteSpace=wrap;rounded=0;fontSize=24;fontColor=#FF0000;" vertex="1" parent="1">
          <mxGeometry x="-50" y="-148" width="60" height="30" as="geometry" />
        </mxCell>
        <mxCell id="KeZkn1Jppf8AMs9LS9iD-103" value="&lt;font style=&quot;font-size: 24px;&quot;&gt;a&lt;/font&gt;" style="text;html=1;align=center;verticalAlign=middle;whiteSpace=wrap;rounded=0;fontColor=#FF0000;" vertex="1" parent="1">
          <mxGeometry x="-220" y="-55" width="60" height="30" as="geometry" />
        </mxCell>
        <mxCell id="KeZkn1Jppf8AMs9LS9iD-104" value="&lt;font style=&quot;font-size: 24px;&quot;&gt;a&lt;/font&gt;" style="text;html=1;align=center;verticalAlign=middle;whiteSpace=wrap;rounded=0;fontColor=#FF0000;" vertex="1" parent="1">
          <mxGeometry x="-165" y="-90" width="60" height="30" as="geometry" />
        </mxCell>
        <mxCell id="KeZkn1Jppf8AMs9LS9iD-105" value="&lt;font style=&quot;font-size: 24px;&quot;&gt;a&lt;/font&gt;" style="text;html=1;align=center;verticalAlign=middle;whiteSpace=wrap;rounded=0;fontColor=#FF0000;" vertex="1" parent="1">
          <mxGeometry x="-120" y="-60" width="60" height="30" as="geometry" />
        </mxCell>
        <mxCell id="KeZkn1Jppf8AMs9LS9iD-106" value="&lt;font style=&quot;font-size: 24px;&quot;&gt;a&lt;/font&gt;" style="text;html=1;align=center;verticalAlign=middle;whiteSpace=wrap;rounded=0;fontColor=#FF0000;" vertex="1" parent="1">
          <mxGeometry x="-170" y="-25" width="60" height="30" as="geometry" />
        </mxCell>
        <mxCell id="KeZkn1Jppf8AMs9LS9iD-107" value="&lt;font style=&quot;font-size: 24px;&quot;&gt;a&lt;/font&gt;" style="text;html=1;align=center;verticalAlign=middle;whiteSpace=wrap;rounded=0;fontColor=#FF0000;" vertex="1" parent="1">
          <mxGeometry x="-165" y="60" width="60" height="30" as="geometry" />
        </mxCell>
        <mxCell id="KeZkn1Jppf8AMs9LS9iD-108" value="&lt;font style=&quot;font-size: 24px;&quot;&gt;b&lt;/font&gt;" style="text;html=1;align=center;verticalAlign=middle;whiteSpace=wrap;rounded=0;fontColor=#FF0000;" vertex="1" parent="1">
          <mxGeometry x="-90" y="35" width="40" height="30" as="geometry" />
        </mxCell>
        <mxCell id="KeZkn1Jppf8AMs9LS9iD-109" value="&lt;font style=&quot;font-size: 24px;&quot;&gt;a&lt;/font&gt;" style="text;html=1;align=center;verticalAlign=middle;whiteSpace=wrap;rounded=0;fontColor=#FF0000;" vertex="1" parent="1">
          <mxGeometry x="-140" y="180" width="60" height="30" as="geometry" />
        </mxCell>
        <mxCell id="KeZkn1Jppf8AMs9LS9iD-112" value="&lt;font style=&quot;font-size: 24px;&quot;&gt;a+a+b+b&lt;/font&gt;" style="text;html=1;align=center;verticalAlign=middle;whiteSpace=wrap;rounded=0;fontColor=#FF0000;" vertex="1" parent="1">
          <mxGeometry x="40" y="-178" width="140" height="30" as="geometry" />
        </mxCell>
        <mxCell id="KeZkn1Jppf8AMs9LS9iD-113" value="&lt;font style=&quot;font-size: 24px;&quot;&gt;(a+b)×2&lt;/font&gt;" style="text;html=1;align=center;verticalAlign=middle;whiteSpace=wrap;rounded=0;fontColor=#FF0000;" vertex="1" parent="1">
          <mxGeometry x="40" y="-136" width="140" height="30" as="geometry" />
        </mxCell>
        <mxCell id="KeZkn1Jppf8AMs9LS9iD-114" value="&lt;font style=&quot;font-size: 24px;&quot;&gt;a×b&lt;/font&gt;" style="text;html=1;align=center;verticalAlign=middle;whiteSpace=wrap;rounded=0;fontColor=#FF0000;" vertex="1" parent="1">
          <mxGeometry x="350" y="-148" width="140" height="30" as="geometry" />
        </mxCell>
        <mxCell id="KeZkn1Jppf8AMs9LS9iD-115" value="&lt;font style=&quot;font-size: 24px;&quot;&gt;a×a&lt;/font&gt;" style="text;html=1;align=center;verticalAlign=middle;whiteSpace=wrap;rounded=0;fontColor=#FF0000;" vertex="1" parent="1">
          <mxGeometry x="350" y="-30" width="140" height="30" as="geometry" />
        </mxCell>
        <mxCell id="KeZkn1Jppf8AMs9LS9iD-116" value="&lt;font style=&quot;font-size: 24px;&quot;&gt;a+a+a+a&lt;/font&gt;" style="text;html=1;align=center;verticalAlign=middle;whiteSpace=wrap;rounded=0;fontColor=#FF0000;" vertex="1" parent="1">
          <mxGeometry x="50" y="-60" width="140" height="30" as="geometry" />
        </mxCell>
        <mxCell id="KeZkn1Jppf8AMs9LS9iD-117" value="&lt;font style=&quot;font-size: 24px;&quot;&gt;a×4&lt;/font&gt;" style="text;html=1;align=center;verticalAlign=middle;whiteSpace=wrap;rounded=0;fontColor=#FF0000;" vertex="1" parent="1">
          <mxGeometry x="40" y="-30" width="140" height="30" as="geometry" />
        </mxCell>
        <mxCell id="KeZkn1Jppf8AMs9LS9iD-118" value="&lt;font style=&quot;font-size: 24px;&quot;&gt;b&lt;/font&gt;" style="text;html=1;align=center;verticalAlign=middle;whiteSpace=wrap;rounded=0;fontColor=#FF0000;" vertex="1" parent="1">
          <mxGeometry x="-130" y="120" width="60" height="30" as="geometry" />
        </mxCell>
        <mxCell id="KeZkn1Jppf8AMs9LS9iD-119" value="&lt;font style=&quot;font-size: 24px;&quot;&gt;c&lt;/font&gt;" style="text;html=1;align=center;verticalAlign=middle;whiteSpace=wrap;rounded=0;fontColor=#FF0000;" vertex="1" parent="1">
          <mxGeometry x="-220" y="160" width="60" height="30" as="geometry" />
        </mxCell>
        <mxCell id="KeZkn1Jppf8AMs9LS9iD-122" value="" style="endArrow=none;dashed=1;html=1;rounded=0;entryX=0.172;entryY=-0.028;entryDx=0;entryDy=0;entryPerimeter=0;" edge="1" parent="1" target="KeZkn1Jppf8AMs9LS9iD-97">
          <mxGeometry width="50" height="50" relative="1" as="geometry">
            <mxPoint x="-174" y="80" as="sourcePoint" />
            <mxPoint x="60" as="targetPoint" />
          </mxGeometry>
        </mxCell>
        <mxCell id="KeZkn1Jppf8AMs9LS9iD-125" value="&lt;font style=&quot;font-size: 24px;&quot;&gt;h&lt;/font&gt;" style="text;html=1;align=center;verticalAlign=middle;whiteSpace=wrap;rounded=0;fontColor=#FF0000;" vertex="1" parent="1">
          <mxGeometry x="-195" y="35" width="60" height="30" as="geometry" />
        </mxCell>
        <mxCell id="KeZkn1Jppf8AMs9LS9iD-127" value="" style="endArrow=none;dashed=1;html=1;rounded=0;entryX=-0.005;entryY=0.026;entryDx=0;entryDy=0;entryPerimeter=0;exitX=0.437;exitY=0.797;exitDx=0;exitDy=0;exitPerimeter=0;" edge="1" parent="1" source="KeZkn1Jppf8AMs9LS9iD-99" target="KeZkn1Jppf8AMs9LS9iD-99">
          <mxGeometry width="50" height="50" relative="1" as="geometry">
            <mxPoint x="-164" y="130" as="sourcePoint" />
            <mxPoint x="-164" y="68" as="targetPoint" />
          </mxGeometry>
        </mxCell>
        <mxCell id="KeZkn1Jppf8AMs9LS9iD-129" value="&lt;font style=&quot;font-size: 24px;&quot;&gt;h&lt;/font&gt;" style="text;html=1;align=center;verticalAlign=middle;whiteSpace=wrap;rounded=0;fontColor=#FF0000;" vertex="1" parent="1">
          <mxGeometry x="-160" y="140" width="60" height="30" as="geometry" />
        </mxCell>
        <mxCell id="KeZkn1Jppf8AMs9LS9iD-130" value="&lt;font style=&quot;font-size: 24px;&quot;&gt;a×h&lt;/font&gt;" style="text;html=1;align=center;verticalAlign=middle;whiteSpace=wrap;rounded=0;fontColor=#FF0000;" vertex="1" parent="1">
          <mxGeometry x="344" y="80" width="140" height="30" as="geometry" />
        </mxCell>
        <mxCell id="KeZkn1Jppf8AMs9LS9iD-131" value="&lt;font style=&quot;font-size: 24px;&quot;&gt;（底×高）➗2&lt;/font&gt;" style="text;html=1;align=center;verticalAlign=middle;whiteSpace=wrap;rounded=0;fontColor=#FF0000;" vertex="1" parent="1">
          <mxGeometry x="300" y="150" width="184" height="60" as="geometry" />
        </mxCell>
        <mxCell id="KeZkn1Jppf8AMs9LS9iD-132" value="&lt;font style=&quot;font-size: 24px;&quot;&gt;a+b+c&lt;/font&gt;" style="text;html=1;align=center;verticalAlign=middle;whiteSpace=wrap;rounded=0;fontColor=#FF0000;" vertex="1" parent="1">
          <mxGeometry x="50" y="140" width="140" height="30" as="geometry" />
        </mxCell>
        <mxCell id="KeZkn1Jppf8AMs9LS9iD-133" value="&lt;font style=&quot;font-size: 24px;&quot;&gt;b&lt;/font&gt;" style="text;html=1;align=center;verticalAlign=middle;whiteSpace=wrap;rounded=0;fontColor=#FF0000;" vertex="1" parent="1">
          <mxGeometry x="-150" y="215" width="60" height="30" as="geometry" />
        </mxCell>
        <mxCell id="KeZkn1Jppf8AMs9LS9iD-134" value="&lt;font style=&quot;font-size: 24px;&quot;&gt;a&lt;/font&gt;" style="text;html=1;align=center;verticalAlign=middle;whiteSpace=wrap;rounded=0;fontColor=#FF0000;" vertex="1" parent="1">
          <mxGeometry x="-155" y="277" width="60" height="30" as="geometry" />
        </mxCell>
        <mxCell id="KeZkn1Jppf8AMs9LS9iD-135" value="" style="endArrow=none;dashed=1;html=1;rounded=0;entryX=0.175;entryY=0.05;entryDx=0;entryDy=0;entryPerimeter=0;" edge="1" parent="1" target="KeZkn1Jppf8AMs9LS9iD-100">
          <mxGeometry width="50" height="50" relative="1" as="geometry">
            <mxPoint x="-170" y="290" as="sourcePoint" />
            <mxPoint x="-164" y="68" as="targetPoint" />
          </mxGeometry>
        </mxCell>
        <mxCell id="KeZkn1Jppf8AMs9LS9iD-136" value="&lt;font style=&quot;font-size: 24px;&quot;&gt;h&lt;/font&gt;" style="text;html=1;align=center;verticalAlign=middle;whiteSpace=wrap;rounded=0;fontColor=#FF0000;" vertex="1" parent="1">
          <mxGeometry x="-190" y="245" width="60" height="30" as="geometry" />
        </mxCell>
        <mxCell id="KeZkn1Jppf8AMs9LS9iD-137" value="&lt;font style=&quot;font-size: 24px;&quot;&gt;（上底+下底）×高➗2&lt;/font&gt;" style="text;html=1;align=center;verticalAlign=middle;whiteSpace=wrap;rounded=0;fontColor=#FF0000;" vertex="1" parent="1">
          <mxGeometry x="219" y="215" width="390" height="100" as="geometry" />
        </mxCell>
      </root>
    </mxGraphModel>
  </diagram>
</mxfile>
